<svg xmlns="http://www.w3.org/2000/svg" viewBox="0 0 200 200">
  <rect width="200" height="200" fill="white"/>

  <!-- Top left rounded rectangle -->
  <path d="M 30 40 Q 30 30 40 30 L 130 30 Q 140 30 140 40 L 140 60 Q 140 70 130 70 L 40 70 Q 30 70 30 60 Z" fill="#1a1a1a"/>

  <!-- Left vertical rounded rectangle -->
  <path d="M 30 70 Q 30 60 40 60 L 60 60 L 60 140 Q 60 150 50 150 L 40 150 Q 30 150 30 140 Z" fill="#1a1a1a"/>

  <!-- Bottom left rounded rectangle -->
  <path d="M 30 140 Q 30 150 40 150 L 110 150 Q 120 150 120 140 L 120 120 Q 120 110 110 110 L 40 110 Q 30 110 30 120 Z" fill="#1a1a1a"/>
</svg>